<?xml version="1.0" encoding="UTF-8"?>
<svg version="1.1" viewBox="0 0 48 48" xmlns="http://www.w3.org/2000/svg">
 <title>Copland OS logo</title>
 <path d="m23.999 1.8805a1.6715 1.6715 0 0 0-1.6708 1.6708 1.6715 1.6715 0 0 0 1.6708 1.6708 1.6715 1.6715 0 0 0 1.673-1.6708 1.6715 1.6715 0 0 0-1.673-1.6708zm0 9.0763a12.116 12.116 0 0 0-12.115 12.115 12.116 12.116 0 0 0 7.8047 11.305c-0.0033 2.1501 0.27728 6.9779-0.79392 7.8672-0.53599 0.44503-2.0151 0.84587-3.5232 0.29156-1.4692-0.53999-2.4388-1.7098-3.1352-2.6867-0.98662-1.3841-3.6456-0.11406-2.5477 1.996 0.69545 1.3366 2.1891 2.4756 2.4804 2.6845 1.0767 0.77183 3.1045 1.5021 4.5909 1.5811 3.1006 0.16466 4.945-1.916 5.4294-2.8235 0.81414-1.5257 0.77821-4.9429 0.77821-4.9429v-3.9022l-0.0023-0.0023v-2.5813a8.8515 8.8515 0 0 1-7.8181-8.7868 8.8515 8.8515 0 0 1 8.8519-8.8519 8.8515 8.8515 0 0 1 8.8541 8.8519 8.8515 8.8515 0 0 1-7.8181 8.7933v2.5746l-0.0023 0.0023v3.9022s-0.03602 3.4172 0.77821 4.9429c0.4843 0.90754 2.3289 2.9882 5.4294 2.8235 1.4863-0.07894 3.5118-0.80924 4.5887-1.5811 0.2913-0.20884 1.785-1.3479 2.4804-2.6845 1.0979-2.11-1.5588-3.3801-2.5454-1.996-0.6964 0.97698-1.666 2.1467-3.1352 2.6867-1.5082 0.55431-2.9872 0.15351-3.5232-0.29156-1.0712-0.88944-0.79062-5.7171-0.79392-7.8672a12.116 12.116 0 0 0 7.8048-11.305 12.116 12.116 0 0 0-12.117-12.115zm-13.727 2.3929c-0.6264 0.030811-1.3244 0.55804-2.0969 1.1191-1.7224 1.2511-3.624 2.7843-5.6807 4.564-2.6153 2.2629-2.4939 4.0413-2.4939 4.0413s-0.12148 1.7762 2.4939 4.039c2.0566 1.7795 3.9583 3.3128 5.6807 4.564 1.2361 0.89769 2.2835 1.7125 3.1487 0.53825 0.84001-1.14 0.32741-1.7007-1.3591-2.7204-0.89665-0.59237-3.5361-2.264-4.2745-3.0007-0.29794-0.2972-2.1187-1.8045-2.1507-3.4201 0.032116-1.6156 1.8528-3.1251 2.1507-3.4223 0.73845-0.73672 3.3779-2.4083 4.2745-3.0007 1.6864-1.0196 2.199-1.5781 1.3591-2.7181-0.32446-0.44034-0.676-0.60148-1.0518-0.58308zm27.457 0c-0.37585-0.01823-0.72509 0.14274-1.0495 0.58308-0.84001 1.14-0.32962 1.6985 1.3568 2.7181 0.89665 0.59237 3.5383 2.264 4.2768 3.0007 0.29794 0.29721 2.1187 1.8067 2.1507 3.4223-0.03212 1.6156-1.8528 3.1229-2.1507 3.4201-0.73846 0.73672-3.3801 2.4083-4.2768 3.0007-1.6864 1.0196-2.1968 1.5803-1.3568 2.7204 0.86523 1.1742 1.9104 0.35944 3.1465-0.53825 1.7224-1.2511 3.624-2.7843 5.6807-4.564 2.6153-2.2629 2.4939-4.039 2.4939-4.039s0.12148-1.7784-2.4939-4.0413c-2.0566-1.7795-3.9583-3.3128-5.6807-4.564-0.77257-0.56104-1.4705-1.0884-2.0969-1.1191zm-14.017 5.1559a4.5766 4.5766 0 0 0-4.279 4.8552 4.5766 4.5766 0 0 0 4.853 4.279 4.5766 4.5766 0 0 0 4.2813-4.853 4.5766 4.5766 0 0 0-4.8552-4.2813zm-19.233 14.378a1.6715 1.6715 0 0 0-1.6708 1.673 1.6715 1.6715 0 0 0 1.6708 1.6708 1.6715 1.6715 0 0 0 1.6708-1.6708 1.6715 1.6715 0 0 0-1.6708-1.673zm39.042 0a1.6715 1.6715 0 0 0-1.6708 1.673 1.6715 1.6715 0 0 0 1.6708 1.6708 1.6715 1.6715 0 0 0 1.6708-1.6708 1.6715 1.6715 0 0 0-1.6708-1.673z" fill="#FFFFFF"/>
</svg>
